<?xml version="1.0" encoding="UTF-8"?>
<svg id="_レイヤー_2" data-name="レイヤー 2" xmlns="http://www.w3.org/2000/svg" viewBox="0 0 254.59 40.66">
  <defs>
    <style>
      .cls-1 {
        fill: #fff;
      }
    </style>
  </defs>
  <g id="_レイヤー_1-2" data-name="レイヤー 1">
    <g>
      <g>
        <path class="cls-1" d="m230,10.9c-1.56-.83-3.34-1.24-5.34-1.24-1.5,0-2.93.29-4.28.87-1.32.58-2.41,1.4-3.27,2.44v-2.9h-5.24v25.34h5.24v-14.17c0-2.27.57-4,1.7-5.2,1.17-1.23,2.73-1.84,4.69-1.84s3.51.61,4.65,1.84c1.14,1.2,1.7,2.93,1.7,5.2v14.17h5.2v-14.95c0-2.3-.44-4.26-1.33-5.89-.89-1.63-2.13-2.85-3.73-3.68Z"/>
        <polygon class="cls-1" points="247.83 10.07 247.83 3.77 242.54 3.77 242.54 10.07 236.01 10.07 236.01 14.35 242.54 14.35 242.54 35.03 247.83 35.03 247.83 14.35 254.59 14.35 254.59 10.07 247.83 10.07"/>
        <path class="cls-1" d="m204.47,0c-.95,0-1.75.32-2.39.97-.64.64-.97,1.44-.97,2.39s.32,1.75.97,2.39c.64.64,1.44.97,2.39.97s1.7-.32,2.34-.97c.64-.64.97-1.44.97-2.39s-.32-1.75-.97-2.39c-.64-.64-1.43-.97-2.34-.97Z"/>
        <rect class="cls-1" x="201.8" y="10.07" width="5.24" height="25.34"/>
        <path class="cls-1" d="m86.51,22.35v-12.28h-5.11v1.9c-.35-.25-.72-.49-1.1-.71-1.92-1.07-4.07-1.61-6.45-1.61s-4.52.54-6.45,1.61c-1.92,1.07-3.44,2.61-4.55,4.6-1.11,1.99-1.67,4.28-1.67,6.85s.54,4.91,1.62,6.9c1.08,1.96,2.57,3.5,4.46,4.6,1.89,1.07,4.01,1.61,6.36,1.61s4.54-.54,6.49-1.61c.45-.25.88-.53,1.28-.82v1.95h5.11v-12.26c0-.12.01-.24.01-.36s0-.25-.01-.37Zm-6.35,5.06c-.72,1.29-1.67,2.25-2.84,2.9-1.14.64-2.38.97-3.7.97-2.07,0-3.8-.74-5.19-2.21-1.35-1.5-2.03-3.62-2.03-6.35,0-1.84.33-3.39.99-4.65.66-1.29,1.55-2.25,2.66-2.9,1.14-.64,2.38-.97,3.7-.97s2.56.32,3.7.97c1.14.64,2.06,1.61,2.75,2.9.69,1.26,1.04,2.81,1.04,4.65s-.36,3.4-1.08,4.69Z"/>
        <path class="cls-1" d="m132.63,11.22c-1.87-1.04-4-1.56-6.39-1.56s-4.69.54-6.62,1.61c-1.9,1.07-3.39,2.61-4.46,4.6-1.04,1.96-1.56,4.25-1.56,6.85s.54,4.91,1.61,6.9c1.1,1.96,2.61,3.5,4.51,4.6,1.93,1.07,4.11,1.61,6.53,1.61,2.97,0,5.46-.74,7.45-2.21,2.02-1.5,3.42-3.42,4.19-5.75h-5.66c-1.17,2.36-3.16,3.54-5.98,3.54-1.96,0-3.62-.61-4.97-1.84-1.35-1.23-2.1-2.85-2.25-4.88h19.36c.12-.77.18-1.63.18-2.58,0-2.45-.52-4.61-1.56-6.49-1.04-1.9-2.5-3.37-4.37-4.42Zm-13.57,9.24c.25-1.96,1.01-3.51,2.3-4.65,1.29-1.17,2.84-1.75,4.65-1.75,1.99,0,3.66.58,5.01,1.75,1.35,1.17,2.04,2.71,2.07,4.65h-14.03Z"/>
        <polygon class="cls-1" points="108.34 10.07 101.16 30.72 93.99 10.07 88.37 10.07 97.99 35.42 104.24 35.42 113.9 10.07 108.34 10.07"/>
        <path class="cls-1" d="m47.1,14.49c.76-.51,1.85-.76,3.26-.76s2.54.25,3.59.76c1.09.51,1.99,1.23,2.72,2.17l3.15-3.15c-1.01-1.41-2.32-2.46-3.91-3.15-1.56-.72-3.35-1.09-5.38-1.09-1.92,0-3.57.31-4.95.92-1.34.62-2.39,1.5-3.15,2.66-.76,1.12-1.14,2.46-1.14,4.02s.33,2.81.98,3.75c.69.94,1.56,1.69,2.61,2.23,1.05.54,2.16,1,3.32,1.36,1.2.33,2.32.67,3.37,1.03,1.05.33,1.9.76,2.56,1.3.69.51,1.03,1.23,1.03,2.17s-.42,1.69-1.25,2.23c-.83.51-2.01.76-3.53.76s-2.9-.27-4.13-.82c-1.23-.58-2.32-1.45-3.26-2.61l-3.15,3.15c.8.98,1.74,1.83,2.83,2.56,1.09.69,2.27,1.23,3.53,1.63,1.3.36,2.68.54,4.13.54,2.9,0,5.2-.71,6.9-2.12,1.74-1.41,2.61-3.33,2.61-5.76,0-1.59-.34-2.88-1.03-3.86-.65-.98-1.5-1.76-2.56-2.34s-2.16-1.03-3.32-1.36c-1.16-.36-2.28-.71-3.37-1.03-1.05-.33-1.9-.72-2.56-1.2-.65-.47-.98-1.14-.98-2.01s.36-1.54,1.09-2.01Z"/>
        <path class="cls-1" d="m192.87,10.64c-1.1-.77-2.33-1.38-3.64-1.8-1.3-.43-2.69-.65-4.13-.65-1.84,0-3.61.37-5.23,1.05-.14.06-.26.11-.39.18-1.45.66-2.78,1.59-3.92,2.69-.37.36-.72.74-1.07,1.17-.62.73-1.26,1.58-1.88,2.43-.13.18-.26.36-.39.54-.34.48-3.6,5.41-4.18,6.3-.29.44-.63.95-1,1.49-.08.12-.17.25-.26.38-.61.9-1.29,1.85-1.92,2.68-.31.42-.63.81-.9,1.13-.28.33-.53.6-.71.78-.77.75-1.68,1.36-2.68,1.78-1,.42-2.08.65-3.23.65-.79,0-1.55-.11-2.27-.32-.37-.1-.73-.23-1.08-.39-1.54-.67-2.86-1.8-3.79-3.22-.47-.71-.83-1.49-1.09-2.33-.24-.83-.39-1.71-.39-2.64,0-1.23.24-2.39.67-3.46.66-1.59,1.75-2.95,3.13-3.91.69-.48,1.44-.85,2.25-1.11.81-.26,1.66-.41,2.56-.41,1.15,0,2.24.23,3.23.65,1,.43,1.9,1.03,2.68,1.78.18.18.43.45.71.78.48.58,1.06,1.33,1.63,2.12.22.32.96,1.36,1.19,1.69.86-1.3,2.37-3.58,3.16-4.76-.13-.19-.78-1.1-.92-1.29-.36-.47-.72-.93-1.08-1.34-.36-.43-.7-.81-1.07-1.17-1.24-1.21-2.7-2.19-4.31-2.86-1.62-.68-3.39-1.05-5.23-1.05s-3.74.4-5.41,1.13c-2.5,1.08-4.61,2.9-6.11,5.19-.75,1.14-1.34,2.41-1.75,3.75-.4,1.35-.62,2.78-.62,4.27h0v18.12h5.05v-7.06c.34.29.69.57,1.06.83,1.11.77,2.34,1.38,3.65,1.81,1.3.42,2.69.64,4.13.64,1.84,0,3.61-.37,5.23-1.05,1.61-.68,3.06-1.66,4.3-2.86h0c.37-.36.71-.75,1.07-1.18.62-.73,1.26-1.58,1.88-2.43.13-.18.26-.35.39-.53.34-.49,4.8-7.25,5.17-7.8.08-.12.17-.25.26-.38.61-.89,1.29-1.85,1.92-2.68.31-.42.63-.81.9-1.13.28-.33.53-.6.71-.78.77-.75,1.68-1.35,2.68-1.78.24-.1.48-.18.74-.27.79-.24,1.62-.37,2.5-.38,1.19,0,2.33.25,3.35.7,1.54.67,2.86,1.8,3.79,3.22.47.71.84,1.49,1.09,2.33.25.83.39,1.72.39,2.64,0,1.23-.24,2.4-.67,3.46-.66,1.59-1.75,2.96-3.13,3.91-.69.48-1.44.86-2.25,1.11-.8.26-1.66.41-2.56.41-1.15,0-2.24-.23-3.23-.65-1-.42-1.9-1.03-2.68-1.78-.18-.18-.43-.45-.71-.78-.48-.57-1.06-1.34-1.63-2.12-.23-.32-1.06-1.52-1.28-1.85-.07.11-.46.81-.54.93-1.48,2.24-2.1,3.07-2.61,3.84.13.19.87,1.24,1,1.43.36.47.72.93,1.08,1.34.35.43.7.82,1.07,1.17,1.24,1.21,2.7,2.19,4.31,2.86,1.62.68,3.38,1.05,5.23,1.05s3.74-.4,5.41-1.12c2.51-1.09,4.62-2.91,6.12-5.2.74-1.14,1.35-2.4,1.75-3.75.4-1.34.62-2.78.62-4.26,0-1.97-.39-3.87-1.09-5.58-1.06-2.58-2.82-4.77-5.04-6.31Z"/>
      </g>
      <path class="cls-1" d="m16.9,5C7.57,5,0,12.57,0,21.9s7.57,16.9,16.9,16.9,16.9-7.57,16.9-16.9S26.23,5,16.9,5Zm8.6,24.01l-1.86.02v1.72c0,.99-.8,1.79-1.79,1.79s-1.79-.8-1.79-1.79v-3.68s0-.02,0-.02v-6.12l2.4-1.88c1.02-.8,1.2-2.27.41-3.29-1.36-1.76-4.21-.49-4.21,2.19v8.83s0,0,0,0c-.15,3.09-2.32,4.61-2.32,4.61-2.4,1.74-6.05,1.66-8.22-1.15-2-2.58-1.54-6.29,1.03-8.3l1.11-.87s0-2.77,0-2.77l-1.91.02c-.98.01-1.77-.77-1.78-1.75-.01-.98.77-1.77,1.75-1.78l1.86-.02v-1.72c0-.99.8-1.79,1.79-1.79s1.79.8,1.79,1.79v3.68s0,.02,0,.02v6.12l-2.4,1.88c-1.02.8-1.2,2.27-.41,3.29,1.36,1.76,4.21.49,4.21-2.19v-8.83s0,0,0,0c.15-3.09,2.32-4.61,2.32-4.61,2.4-1.74,6.05-1.66,8.22,1.15,2,2.58,1.54,6.29-1.03,8.3l-1.11.87s0,2.77,0,2.77l1.91-.02c.98-.01,1.77.77,1.78,1.75.01.98-.77,1.77-1.75,1.78Z"/>
    </g>
  </g>
</svg>